<svg id="Group_103201" data-name="Group 103201" xmlns="http://www.w3.org/2000/svg" width="48.514" height="48.515" viewBox="0 0 48.514 48.515">
  <path id="noun-ar-2300882" d="M156.895,50.762a.5.5,0,0,1,.23.228l.007.015.014.033a.508.508,0,0,1,.032.188v3.527a.505.505,0,1,1-1.011,0v-2.72l-2.3,1.15a.505.505,0,0,1-.452-.9l2.128-1.064-2.128-1.064a.505.505,0,0,1,.452-.9Zm.284,10.551a.506.506,0,0,1-.284.464l-3.027,1.514a.505.505,0,1,1-.452-.9l2.128-1.064-2.128-1.064a.505.505,0,1,1,.452-.9l2.3,1.15v-2.72a.505.505,0,0,1,1.011,0Zm-15.545.01,2.128,1.064a.505.505,0,1,1-.452.9l-3.027-1.514a.5.5,0,0,1-.231-.228l-.007-.015c0-.011-.01-.022-.014-.033a.5.5,0,0,1-.032-.188V57.786a.505.505,0,0,1,1.011,0v2.72l2.3-1.15a.505.505,0,1,1,.452.9Zm-.625-9.289v2.72a.505.505,0,1,1-1.011,0V51.227a.506.506,0,0,1,.284-.464l3.027-1.514a.505.505,0,1,1,.452.9l-2.128,1.064,2.128,1.064a.505.505,0,1,1-.452.9Zm7.345-5.308a.507.507,0,0,1,.47,0l3.023,1.511a.505.505,0,1,1-.452.9l-2.3-1.15v2.72a.505.505,0,1,1-1.011,0v-2.72l-2.3,1.15a.505.505,0,0,1-.452-.9Zm.47,19.087a.506.506,0,0,1-.47,0L145.331,64.3a.505.505,0,0,1,.452-.9l2.3,1.15v-2.72a.505.505,0,1,1,1.011,0v2.72l2.3-1.15a.505.505,0,0,1,.452.9Zm.27-10.241v2.72a.505.505,0,1,1-1.011,0v-2.72l-2.753-1.376a.505.505,0,1,1,.452-.9l2.806,1.4,2.806-1.4a.505.505,0,1,1,.452.9Z" transform="translate(-124.665 -31.326)" fill="#fff" stroke="#fff" stroke-width="0.5"/>
  <g id="Group_103199" data-name="Group 103199" transform="translate(0 0)">
    <path id="Path_22063" data-name="Path 22063" d="M311.415,19.055h1.328v5.413a.512.512,0,0,0,.511.511H315.5a.512.512,0,0,0,.511-.511V19.055h1.328a.693.693,0,0,0,.562-.358.535.535,0,0,0-.051-.613l-3.013-3.83a.61.61,0,0,0-.46-.255.536.536,0,0,0-.459.255l-2.962,3.83a.552.552,0,0,0-.153.357.384.384,0,0,0,.051.255.773.773,0,0,0,.562.358Z" transform="translate(-290.12 -14)" fill="#fff"/>
    <path id="Path_22064" data-name="Path 22064" d="M94.981,245.3v-2.247a.512.512,0,0,0-.511-.511H89.058V241.21a.628.628,0,0,0-.358-.562.535.535,0,0,0-.613.051l-3.83,3.013a.61.61,0,0,0-.255.46.536.536,0,0,0,.255.46l3.83,2.962a.486.486,0,0,0,.358.1.384.384,0,0,0,.255-.051.628.628,0,0,0,.358-.562v-1.328h5.413a.469.469,0,0,0,.51-.46Z" transform="translate(-84.002 -219.914)" fill="#fff"/>
    <path id="Path_22065" data-name="Path 22065" d="M317.133,431.523h-1.328V426.11a.512.512,0,0,0-.511-.511h-2.247a.512.512,0,0,0-.511.511v5.413h-1.328a.627.627,0,0,0-.562.358.535.535,0,0,0,.051.613l2.962,3.83a.61.61,0,0,0,.46.255.536.536,0,0,0,.459-.255l2.962-3.83a.486.486,0,0,0,.1-.358.384.384,0,0,0-.051-.255.49.49,0,0,0-.459-.357Z" transform="translate(-289.914 -388.064)" fill="#fff"/>
    <path id="Path_22066" data-name="Path 22066" d="M506.323,243.915l-3.83-2.962a.551.551,0,0,0-.357-.153.384.384,0,0,0-.255.051.629.629,0,0,0-.358.562v1.328H496.11a.512.512,0,0,0-.511.511V245.5a.512.512,0,0,0,.511.511h5.413v1.328a.628.628,0,0,0,.358.562.535.535,0,0,0,.613-.051l3.83-2.962a.61.61,0,0,0,.255-.46.564.564,0,0,0-.255-.511Z" transform="translate(-458.064 -220.118)" fill="#fff"/>
    <path id="Path_22067" data-name="Path 22067" d="M444.179,98.137a.494.494,0,0,0,.715,0l3.83-3.83.919.919a.672.672,0,0,0,.613.153.62.62,0,0,0,.409-.511l.613-4.8a.863.863,0,0,0-.153-.511.49.49,0,0,0-.511-.153l-4.8.613a.765.765,0,0,0-.358.153,1.114,1.114,0,0,0-.153.255.671.671,0,0,0,.153.613l.919.919-3.83,3.83a.494.494,0,0,0,0,.715Z" transform="translate(-409.709 -82.51)" fill="#fff"/>
    <path id="Path_22068" data-name="Path 22068" d="M160.778,96.5a1.111,1.111,0,0,0,.255.153.671.671,0,0,0,.613-.153l.919-.919,3.83,3.83a.494.494,0,0,0,.715,0l1.583-1.583a.494.494,0,0,0,0-.715l-3.83-3.83.919-.919a.671.671,0,0,0,.153-.613.62.62,0,0,0-.511-.409l-4.8-.613a.863.863,0,0,0-.511.153.49.49,0,0,0-.153.511l.613,4.8a1.1,1.1,0,0,0,.205.306Z" transform="translate(-153.016 -83.73)" fill="#fff"/>
    <path id="Path_22069" data-name="Path 22069" d="M167.262,373.114a.494.494,0,0,0-.715,0l-3.83,3.83-.919-.919a.672.672,0,0,0-.613-.153.62.62,0,0,0-.409.511l-.613,4.8a.863.863,0,0,0,.153.511.49.49,0,0,0,.511.153l4.8-.613a.765.765,0,0,0,.358-.153,1.11,1.11,0,0,0,.153-.255.671.671,0,0,0-.153-.613l-.919-.919,3.83-3.83a.494.494,0,0,0,0-.715Z" transform="translate(-153.219 -340.226)" fill="#fff"/>
    <path id="Path_22070" data-name="Path 22070" d="M450.98,375.464a1.109,1.109,0,0,0-.255-.153.671.671,0,0,0-.613.153l-.919.919-3.83-3.83a.494.494,0,0,0-.715,0l-1.532,1.634a.494.494,0,0,0,0,.715l3.83,3.83-.919.919a.671.671,0,0,0-.153.613.62.62,0,0,0,.511.409l4.8.613a.863.863,0,0,0,.511-.153.49.49,0,0,0,.153-.511l-.613-4.8a2.218,2.218,0,0,0-.256-.357Z" transform="translate(-410.228 -339.716)" fill="#fff"/>
  </g>
</svg>
