<svg xmlns="http://www.w3.org/2000/svg" width="220.296" height="32.861" viewBox="0 0 220.296 32.861">
  <path id="Shape" d="M-113.089,247.329s-1.836-.184-1.836,1.432v7.233h12.043v2.166a1.026,1.026,0,0,1-1.1,1.065h-10.941v9.4h13.144s7.967-1.212,8.041-9.4v-11.9ZM-94.106,235.8h-23.719c-8.592,2.019-8.775,9.069-8.775,9.069v23.792h9.106V247a2.24,2.24,0,0,1,1.836-2.166h21.516l.037-9.032Zm31.319,26.032c-.624.4-1.1.734-1.432.918a24.048,24.048,0,0,1-3.3,1.726,10.561,10.561,0,0,1-4.039.918,14.423,14.423,0,0,1-10.244-3.782,12.426,12.426,0,0,1-4.112-9.546,13.844,13.844,0,0,1,3.708-9.656,11.7,11.7,0,0,1,9-4.075,15.48,15.48,0,0,1,4.663.771,13.4,13.4,0,0,1,5.214,2.974l-2.35,2.607a8.841,8.841,0,0,0-3.818-2.13,13.457,13.457,0,0,0-3.782-.514,7.907,7.907,0,0,0-6.242,2.974,10.9,10.9,0,0,0-2.5,7.16A8.98,8.98,0,0,0-79.163,259a10.191,10.191,0,0,0,7.27,2.717,7.6,7.6,0,0,0,3.745-1.138c1.065-.808,1.616-1.212,1.616-1.212v-5.728H-74.5l1.138-3.561h10.574Zm23.976-6.976a9.991,9.991,0,0,1-2.937,7.16,9.7,9.7,0,0,1-7.27,3.047,9.672,9.672,0,0,1-7.013-2.974,9.677,9.677,0,0,1-3.011-7.2,10.246,10.246,0,0,1,2.864-7.233,9.164,9.164,0,0,1,6.976-3.047,10.069,10.069,0,0,1,7.453,2.937A9.849,9.849,0,0,1-38.812,254.856Zm-3.708.073a6.537,6.537,0,0,0-1.873-4.736,6.1,6.1,0,0,0-4.663-1.946,5.8,5.8,0,0,0-4.443,2.019,6.626,6.626,0,0,0-1.836,4.59,6.522,6.522,0,0,0,1.836,4.626,6.073,6.073,0,0,0,4.59,1.946,5.949,5.949,0,0,0,4.443-1.909,6.281,6.281,0,0,0,1.946-4.59Zm27.39-.073a9.991,9.991,0,0,1-2.937,7.16,9.7,9.7,0,0,1-7.27,3.047,9.672,9.672,0,0,1-7.013-2.974,9.677,9.677,0,0,1-3.011-7.2,10.246,10.246,0,0,1,2.864-7.233,9.164,9.164,0,0,1,6.976-3.047,10.069,10.069,0,0,1,7.453,2.937A9.849,9.849,0,0,1-15.13,254.856Zm-3.745.073a6.537,6.537,0,0,0-1.873-4.736,6.1,6.1,0,0,0-4.663-1.946,5.8,5.8,0,0,0-4.443,2.019,6.626,6.626,0,0,0-1.836,4.59,6.522,6.522,0,0,0,1.836,4.626,6.073,6.073,0,0,0,4.59,1.946,5.949,5.949,0,0,0,4.443-1.909,6.281,6.281,0,0,0,1.946-4.59Zm25.628,9.583-3.415.514v-3.3l-.734.844a9.56,9.56,0,0,1-2.166,1.505,8.656,8.656,0,0,1-3.708.808,9,9,0,0,1-6.792-2.937,10,10,0,0,1-2.79-7.049,10.28,10.28,0,0,1,2.754-7.233,8.668,8.668,0,0,1,6.719-3.011,9.928,9.928,0,0,1,3.965.734,6.879,6.879,0,0,1,2.056,1.432c.184.257.367.514.587.771v-8.7l3.635-.514Zm-3.194-9.4a6.7,6.7,0,0,0-1.983-4.92,6.142,6.142,0,0,0-4.553-2.019,5.88,5.88,0,0,0-4.59,1.909,6.435,6.435,0,0,0-1.652,4.479,7.178,7.178,0,0,0,1.726,4.92,5.524,5.524,0,0,0,4.369,1.909,6.741,6.741,0,0,0,4.626-1.8,5.8,5.8,0,0,0,2.056-4.479Zm22.434-12.63H15.785v6.939h7.931v3.561H15.785v11.492l-3.965.587V238.884h13.4Zm8.188-2.019-2.46,3.084-2.35-3.084,2.46-3.047Zm-.734,24.049-3.635.514V245.64l3.635-.551v19.423Zm16.449-19.643-1.726,3.965a4.217,4.217,0,0,0-.7-.037,10.365,10.365,0,0,0-1.065.073,3.045,3.045,0,0,0-1.138.4,4.349,4.349,0,0,0-1.983,2.129,8.92,8.92,0,0,0-.955,4v9.069l-3.635.587V245.64l3.378-.624v4.039c.441-.7.881-1.4,1.322-2.13a5.59,5.59,0,0,1,2.166-1.579,9.612,9.612,0,0,1,2.423-.4A14.606,14.606,0,0,1,49.894,244.869Zm27.17,19.643-3.635.514V251.735a3.718,3.718,0,0,0-.808-2.68,3.291,3.291,0,0,0-2.423-.844,3.178,3.178,0,0,0-2.9,1.579,4.451,4.451,0,0,0-.7,2.276v12.373l-3.635.661V251.772a3.9,3.9,0,0,0-.808-2.68,2.7,2.7,0,0,0-2.166-.918h-.367a2.9,2.9,0,0,0-2.79,1.616,6.4,6.4,0,0,0-.661,3.084V264.4l-3.782.661v-19.5l3.415-.587v2.5a8.025,8.025,0,0,1,1.1-1.4,4.861,4.861,0,0,1,3.415-1.359,5.95,5.95,0,0,1,3.231.7,6.469,6.469,0,0,1,1.836,2.276,5.948,5.948,0,0,1,5.361-2.974,5.878,5.878,0,0,1,4.993,2.13,8.5,8.5,0,0,1,1.322,5.14ZM93.7,258.637a5.69,5.69,0,0,1-1.873,4.406,6.611,6.611,0,0,1-4.736,1.726,7.768,7.768,0,0,1-3.892-.991,7.068,7.068,0,0,1-2.607-2.313l2.57-2.276a3.776,3.776,0,0,0,.514.661,4.56,4.56,0,0,0,3.415,1.469,3.092,3.092,0,0,0,2.166-.734,2.5,2.5,0,0,0,.808-2.019c0-.991-.624-1.652-1.873-2.019-2.46-.734-3.818-1.175-4-1.248a6.9,6.9,0,0,1-2.46-1.909,5.351,5.351,0,0,1-.881-3.231,5.482,5.482,0,0,1,1.836-4.186,6.29,6.29,0,0,1,4.369-1.652,7.418,7.418,0,0,1,3.561.881,6.4,6.4,0,0,1,2.35,1.909l-2.166,2.35a7.98,7.98,0,0,0-1.065-.881,4.375,4.375,0,0,0-2.5-.918,3.227,3.227,0,0,0-1.873.514,2.092,2.092,0,0,0-.881,1.836,1.874,1.874,0,0,0,.844,1.726,12.145,12.145,0,0,0,3.158.991,7.489,7.489,0,0,1,3.782,2.019A5.123,5.123,0,0,1,93.7,258.637Z" transform="translate(126.6 -235.8)" fill="#4580c3"/>
</svg>
