<?xml version="1.0" standalone="no"?>
<!DOCTYPE svg PUBLIC "-//W3C//DTD SVG 20010904//EN"
 "http://www.w3.org/TR/2001/REC-SVG-20010904/DTD/svg10.dtd">
<svg version="1.0" xmlns="http://www.w3.org/2000/svg"
 width="860.000000pt" height="860.000000pt" viewBox="0 0 860.000000 860.000000"
 preserveAspectRatio="xMidYMid meet">

<g transform="translate(0.000000,860.000000) scale(0.100000,-0.100000)"
fill="#0072b1" stroke="none">
<path d="M1135 8190 c-411 -43 -717 -286 -807 -640 -30 -120 -30 -340 1 -455
72 -268 265 -482 518 -575 138 -50 230 -64 413 -64 172 0 256 12 385 56 275
94 490 315 567 585 31 107 31 292 0 407 -98 358 -345 597 -694 671 -85 18
-280 26 -383 15z"/>
<path d="M6036 5830 c-281 -32 -533 -121 -688 -243 -158 -123 -370 -342 -492
-505 l-61 -83 -3 366 -2 365 -855 0 -855 0 0 -2580 0 -2580 855 0 855 0 2
1613 3 1612 57 116 c70 143 148 248 271 366 110 104 208 159 352 195 126 31
381 31 498 0 149 -41 274 -120 355 -224 133 -173 218 -443 242 -763 6 -85 10
-683 10 -1527 l0 -1388 861 0 860 0 -4 1643 c-4 1751 -3 1700 -53 1992 -77
453 -240 806 -493 1068 -286 296 -603 462 -1036 543 -105 19 -549 28 -679 14z
m-1246 -850 c0 -5 -7 -10 -16 -10 -8 0 -12 5 -9 10 3 6 10 10 16 10 5 0 9 -4
9 -10z"/>
<path d="M390 3150 l0 -2580 859 0 859 0 4 23 c4 18 3 4866 -1 5070 l-1 67
-860 0 -860 0 0 -2580z"/>
</g>
</svg>
