<svg id="Group_113847" data-name="Group 113847" xmlns="http://www.w3.org/2000/svg" width="182.641" height="92.513" viewBox="0 0 182.641 92.513">
  <path id="Path_68634" data-name="Path 68634" d="M363.039,353.647q0-20-.024-40c0-.943.251-1.131,1.157-1.131q39.861.038,79.722,0c.954,0,1.15.266,1.128,1.166-.064,2.628,0,5.259-.037,7.889-.013.827.175,1.158,1.1,1.141,3.148-.062,6.3,0,9.449-.038.711-.009.931.153.929.9q-.041,14.279.009,28.556c.006,1.056-.554.869-1.164.883-.647.014-1.144.1-1.139-.912.049-8.666.014-17.333.049-26,0-.9-.184-1.2-1.136-1.174-2.294.073-4.594.067-6.891,0-.938-.027-1.246.178-1.239,1.2.046,8.555.029,17.112.018,25.667,0,.385.221,1-.164,1.117a4.462,4.462,0,0,1-1.861.038c-.382-.052-.21-.493-.21-.76q.01-11.444.032-22.885c0-1.185-.065-2.37-.033-3.554.017-.638-.2-.813-.821-.811-5.708.011-11.414-.013-17.122-.013q-12.673,0-25.348.016c-7.262,0-14.525.018-21.789-.008-.764,0-.9.269-.9.956q.024,32.888-.006,65.78c0,.989.48.934,1.148.932q25.74-.01,51.479,0c4.041,0,8.081-.043,12.12.027,1.066.019,1.255-.332,1.247-1.3-.043-5.223.011-10.445-.045-15.667-.011-.98.38-1.056,1.165-1.056s1.172.081,1.164,1.056q-.079,8.946,0,17.888c.01,1.045-.207,1.351-1.311,1.349q-32.69-.055-65.379-.022c-1.8,0-1.548-.259-1.565,1.6-.016,1.74.048,3.482-.019,5.221-.035.883.245,1.093,1.11,1.091q21.294-.043,42.585-.021c10.86,0,21.719-.014,32.577.027,1.007,0,1.214-.269,1.209-1.231-.038-8.557-.022-17.112-.021-25.667a1.319,1.319,0,0,1,1.985-1.255c.458.219.239.657.24.988.016,4.333.011,8.667.011,13,0,5-.032,10,.025,15,.013,1.069-.183,1.4-1.349,1.4q-37.358-.062-74.717-.032c-1.669,0-3.337-.032-5,.016-.706.021-.948-.146-.934-.9.049-2.63-.048-5.262.048-7.889.041-1.169-.358-1.408-1.437-1.381-2.889.07-5.782-.025-8.671.049-1.066.027-1.406-.175-1.4-1.347C363.058,380.239,363.039,366.944,363.039,353.647Zm2.237.073q0,18.891-.021,37.782c0,.872.223,1.122,1.093,1.1,2.222-.06,4.448-.021,6.672-.021,1.465,0,1.467,0,1.467-1.479q0-33.559-.029-67.118c0-1.106.307-1.319,1.352-1.314,10.044.043,20.088.03,30.132.03q17.846,0,35.694.011c.894,0,1.131-.261,1.1-1.121-.062-1.85-.076-3.707,0-5.555.041-1-.242-1.277-1.273-1.276q-37.472.048-74.946,0c-1.045,0-1.273.3-1.269,1.293Q365.3,334.884,365.276,353.72Z" transform="translate(-363.006 -312.511)" fill="#4580c3"/>
  <path id="Path_68635" data-name="Path 68635" d="M424.222,344.63c-1.258,1.871-2.509,3.676-3.692,5.523-.4.627-.535.724-.98.013-1.16-1.848-2.42-3.635-3.687-5.515a2.933,2.933,0,0,0-.2,1.508c-.013,2.407-.062,4.815.018,7.219.04,1.2-.735.786-1.309.856-.676.084-1.053,0-1.042-.891.056-4.036.033-8.072.014-12.109,0-.536.092-.709.7-.773a2.483,2.483,0,0,1,2.819,1.449c.783,1.492,1.845,2.835,2.7,4.29.445.757.63.56.994-.03,1.066-1.721,2.171-3.415,3.267-5.118a3.586,3.586,0,0,1,2.813-.5c.21.17.111.409.111.614.006,4.111-.017,8.223.019,12.332.009,1.18-.808.651-1.309.725-.547.08-1.068.148-1.044-.773.065-2.478.03-4.962.014-7.443A2.076,2.076,0,0,0,424.222,344.63Z" transform="translate(-333.274 -296.021)" fill="#4580c3"/>
  <path id="Path_68636" data-name="Path 68636" d="M443.355,349.988c0-3.07.059-5.844-.03-8.612-.033-1.052.534-.91,1.149-.877.589.032,1.309-.32,1.287.869-.073,3.886-.019,7.774-.04,11.66,0,.4.267,1.067-.286,1.144-.665.092-1.46.391-2.041-.375-1.4-1.852-2.836-3.681-4.259-5.518a30.9,30.9,0,0,0-2.989-3.484v5.148c0,1.185-.022,2.37.011,3.554.017.582-.186.748-.765.756-1.6.022-1.6.053-1.6-1.543,0-3.627-.013-7.255.019-10.882,0-.437-.35-1.214.321-1.277.757-.073,1.662-.423,2.326.468,1.588,2.128,3.231,4.216,4.85,6.318C441.931,348.145,442.556,348.953,443.355,349.988Z" transform="translate(-321.229 -296.023)" fill="#4580c3"/>
  <path id="Path_68637" data-name="Path 68637" d="M455.476,347.284c0-1.96.025-3.923-.014-5.883-.014-.678.1-.961.884-.947,2.812.053,5.628.057,8.441,0,.818-.017.905.321.854.966-.048.59.213,1.254-.867,1.211-2-.08-4,0-6-.035-.706-.013-.931.189-.927.929.013,2.666-.019,2.666,2.615,2.666,1.223,0,2.445.018,3.667,0,1.04-.021.533.751.6,1.185s.186.956-.635.932c-1.775-.053-3.555.018-5.331-.033-.74-.021-.985.213-.907.937.1.908-.375,2.082.181,2.668.511.534,1.681.138,2.561.153,1.479.024,2.964.049,4.441-.008.961-.038.635.627.612,1.04-.024.439.42,1.177-.622,1.168q-4.386-.043-8.775,0c-.66.006-.8-.237-.8-.842C455.493,351.355,455.476,349.32,455.476,347.284Z" transform="translate(-308.386 -296.004)" fill="#4580c3"/>
  <path id="Path_68638" data-name="Path 68638" d="M401.369,347.3c0-2,.018-3.994-.008-5.991-.008-.568.065-.862.757-.853,2.887.037,5.774.051,8.66,0,.951-.019.738.554.748,1.071.01.541.156,1.1-.77,1.074-2.071-.056-4.144.011-6.215-.024-.64-.011-.794.2-.81.816-.073,2.817-.092,2.817,2.7,2.816,1.11,0,2.225.062,3.331-.017.969-.07.821.528.857,1.117.041.67-.1,1.005-.891.982-1.739-.054-3.479.011-5.218-.021-.563-.011-.749.135-.778.722-.145,3.043-.162,3.041,2.9,3.041,1.406,0,2.816.054,4.217-.017.988-.052.717.6.714,1.083s.283,1.11-.716,1.093c-2.848-.049-5.7-.017-8.547.032-.722.013-.962-.185-.945-.926C401.4,351.3,401.369,349.3,401.369,347.3Z" transform="translate(-340.352 -296.003)" fill="#4580c3"/>
  <path id="Path_68639" data-name="Path 68639" d="M392.013,347.259c0-2,.056-4-.021-6-.041-1.052.627-.8,1.153-.768s1.319-.375,1.255.773c-.076,1.365.021,2.739-.033,4.107-.027.7.21.868.878.848,1.554-.049,3.113-.051,4.667,0,.832.025,1.207-.178,1.145-1.106-.083-1.254.013-2.517-.035-3.775-.024-.646.107-.9.834-.883,1.454.04,1.457-.011,1.457,1.465q0,5.665,0,11.326c0,.514.127,1.122-.745.932-.63-.137-1.651.45-1.552-.98.1-1.363,0-2.738.029-4.107.011-.523-.169-.733-.7-.729-1.777.017-3.555.029-5.332,0-.6-.01-.641.3-.636.754.013,1.406-.018,2.812.01,4.219.027,1.358-1.021.692-1.6.853-.651.18-.792-.231-.784-.822C392.031,351.331,392.013,349.295,392.013,347.259Z" transform="translate(-345.883 -296.007)" fill="#4580c3"/>
  <path id="Path_68640" data-name="Path 68640" d="M437.451,354.278c-.573,0-1.153-.035-1.729.01a.764.764,0,0,1-.945-.681c-.433-2.478-2.028-3.081-4.266-2.665a.291.291,0,0,1-.111,0c-2.3-.395-3.993.164-4.433,2.757a.658.658,0,0,1-.786.587c-.582-.033-1.169-.008-1.891-.008,1.009-2.351,1.965-4.6,2.94-6.847.919-2.116,1.883-4.212,2.771-6.342.218-.52.445-.835,1.023-.713.612.13,1.358-.387,1.782.608,1.852,4.346,3.775,8.662,5.668,12.99C437.5,354.031,437.465,354.114,437.451,354.278Zm-7.095-11.013c-.743,1.772-1.386,3.323-2.044,4.868-.142.332-.328.644.272.644,1.34,0,2.68,0,4.168,0Z" transform="translate(-327.393 -296.065)" fill="#4580c3"/>
  <path id="Path_68641" data-name="Path 68641" d="M468.49,340.329a7.876,7.876,0,0,1,4.254,1.331c.453.309.535.646.115.943-.445.317-.323,1.529-1.354.929a6,6,0,0,0-3.43-1.053c-.994.064-1.858.374-2.025,1.5-.157,1.052.589,1.541,1.421,1.828,1.144.393,2.337.644,3.482,1.034a3.572,3.572,0,0,1,2.755,3.9,3.964,3.964,0,0,1-3.46,3.609,8.3,8.3,0,0,1-6.494-1.491c-.4-.277-.784-.635-.239-1.02.487-.344.585-1.635,1.622-.815a5.571,5.571,0,0,0,4.1,1.333c.964-.089,1.858-.332,2.05-1.471s-.573-1.592-1.468-1.883c-1.01-.329-2.044-.581-3.054-.908-2.469-.8-3.384-2.179-3.038-4.526a4.212,4.212,0,0,1,4.211-3.237C468.119,340.322,468.305,340.329,468.49,340.329Z" transform="translate(-303.787 -296.079)" fill="#4580c3"/>
  <path id="Path_68642" data-name="Path 68642" d="M447.413,347.317c0-2.035.019-4.069-.013-6.1-.008-.563.119-.76.725-.754,2.886.032,5.773.056,8.659-.008.956-.022.74.538.74,1.047,0,.55.232,1.176-.8,1.131-1.92-.084-3.848.013-5.771-.041-.9-.025-1.288.126-1.252,1.185.091,2.673.025,2.676,2.749,2.676,1.185,0,2.372.049,3.552-.016.948-.053.646.6.633,1.024-.014.457.358,1.16-.666,1.129-1.774-.056-3.552.011-5.328-.027-.722-.016-.959.216-.926.951.061,1.328-.04,2.664.037,3.993.052.894-.515.773-.985.689-.492-.088-1.368.511-1.36-.665C447.422,351.458,447.413,349.387,447.413,347.317Z" transform="translate(-313.148 -296.004)" fill="#4580c3"/>
  <path id="Path_68643" data-name="Path 68643" d="M390.13,348.579c0,1.627-.049,3.258.019,4.882.04.962-.576.778-1.078.73s-1.338.422-1.327-.733c.03-3.256-.018-6.513.032-9.767.013-.83-.207-1.115-1.044-1.042s-1.707-.038-2.553.029c-.978.08-.748-.593-.716-1.085.029-.449-.375-1.145.654-1.133,3.221.043,6.444.049,9.664,0,.972-.016.735.587.73,1.083s.272,1.18-.7,1.133c-.961-.046-1.926.024-2.887-.019-.635-.03-.818.194-.8.821C390.157,345.173,390.13,346.877,390.13,348.579Z" transform="translate(-350.953 -296.003)" fill="#4580c3"/>
  <path id="Path_68644" data-name="Path 68644" d="M475.217,348.484c0-1.664-.027-3.329.013-4.993.014-.611-.137-.861-.787-.826-.923.048-1.856-.054-2.774.029-1.1.1-.819-.643-.84-1.217-.019-.544-.156-1.047.781-1.026q4.772.105,9.548,0c1.045-.024.765.6.773,1.131.008.552.223,1.223-.808,1.112-.878-.1-1.778.032-2.661-.035-.765-.059-.9.256-.894.942.032,3.18-.033,6.363.041,9.541.024,1.021-.38,1.1-1.215,1.1s-1.268-.087-1.2-1.106C475.291,351.6,475.217,350.036,475.217,348.484Z" transform="translate(-299.318 -296.006)" fill="#4580c3"/>
  <path id="Path_68645" data-name="Path 68645" d="M443.58,347.373c0-1.995.029-3.991-.014-5.986-.016-.7.134-.956.894-.932,1.521.048,1.522,0,1.522,1.5,0,3.769-.048,7.539.029,11.307.022,1.1-.565.948-1.238.958-.7.008-1.274.1-1.22-.977C443.65,351.294,443.58,349.331,443.58,347.373Z" transform="translate(-315.423 -296.004)" fill="#4580c3"/>
</svg>
